<?xml version="1.0" encoding="UTF-8"?>
<svg xmlns="http://www.w3.org/2000/svg" version="1.1" viewBox="0 0 960 540">
  <defs>
    <style>
      .cls-1 {
        fill: #f2d2d2;
      }

      .cls-1, .cls-2 {
        stroke: #902222;
      }

      .cls-3 {
        stroke: #a43636;
      }

      .cls-3, .cls-4, .cls-5 {
        fill: #bb3d3d;
        stroke-width: 6px;
      }

      .cls-2 {
        fill: #e54848;
      }

      .cls-4 {
        stroke: #cc5454;
      }

      .cls-6 {
        fill: #f2b470;
      }

      .cls-6, .cls-5 {
        stroke: #c05454;
      }

      .cls-7 {
        fill: #c38d51;
        stroke: #b08350;
      }
    </style>
  </defs>
  <!-- Generator: Adobe Illustrator 28.7.10, SVG Export Plug-In . SVG Version: 1.2.0 Build 236)  -->
  <g>
    <g id="Layer_1">
      <rect id="Rectangle_1" class="cls-7" x="572.5" y="453" width="18.6" height="25.9"/>
      <rect id="Rectangle_1-2" data-name="Rectangle_1" class="cls-7" x="373" y="453" width="18.6" height="25.9"/>
      <rect id="Rectangle_1-3" data-name="Rectangle_1" class="cls-4" x="370" y="279" width="227" height="179.7"/>
      <polygon id="Shape_1" class="cls-2" points="571.5 386.5 399.5 386.5 399.5 448.5 571.5 449.5 571.5 386.5"/>
      <polygon id="Shape_1-2" data-name="Shape_1" class="cls-2" points="571.5 293 399.5 293 399.5 355 571.5 356 571.5 293"/>
      <polygon id="Shape_1-3" data-name="Shape_1" class="cls-1" points="567.5 336 399.5 336 373.5 375 594.5 375.5 567.5 336"/>
      <line id="Shape_2" class="cls-5" x1="332.5" y1="289" x2="643.5" y2="289"/>
      <polygon id="Shape_1-4" data-name="Shape_1" class="cls-1" points="571.5 421.5 399.5 421.5 373.5 460.5 594.5 461 571.5 421.5"/>
      <line id="Shape_2-2" data-name="Shape_2" class="cls-5" x1="367.2" y1="462" x2="600" y2="462"/>
      <polygon id="Shape_1-5" data-name="Shape_1" class="cls-3" points="601 241 381 241 340 284 638.5 284 601 241"/>
      <rect id="Rectangle_1-4" data-name="Rectangle_1" class="cls-6" x="598" y="140" width="5.4" height="122.8"/>
      <rect id="Rectangle_1-5" data-name="Rectangle_1" class="cls-6" x="373" y="140" width="5.4" height="122.8"/>
      <rect id="Rectangle_1-6" data-name="Rectangle_1" class="cls-6" x="364" y="75" width="245.7" height="69"/>
    </g>
  </g>
</svg>